<svg width="40" height="40" viewBox="0 0 40 40" fill="none" xmlns="http://www.w3.org/2000/svg">
<path d="M28.5353 10.7142C28.5353 15.4284 24.7137 19.2499 19.9996 19.2499C15.2854 19.2499 11.4639 15.4284 11.4639 10.7142C11.4639 6.00005 15.2854 2.1785 19.9996 2.1785C24.7137 2.1785 28.5353 6.00005 28.5353 10.7142Z" stroke="#F3EA28" stroke-width="1.5"/>
<path d="M30.4854 29.8589L30.4854 29.8589C33.2502 31.8757 35.3686 34.6423 36.5966 37.821H3.40223C4.6303 34.6423 6.74869 31.8756 9.51346 29.8589L9.51348 29.8589C12.5585 27.6374 16.2303 26.4405 19.9994 26.4405C23.7686 26.4405 27.4403 27.6374 30.4854 29.8589Z" stroke="#F3EA28" stroke-width="1.5"/>
<path d="M19.9996 19.9999C25.128 19.9999 29.2853 15.8426 29.2853 10.7142C29.2853 5.58584 25.128 1.4285 19.9996 1.4285C14.8712 1.4285 10.7139 5.58584 10.7139 10.7142C10.7139 15.8426 14.8712 19.9999 19.9996 19.9999Z" stroke="#F3EA28" stroke-width="1.5" stroke-linecap="round" stroke-linejoin="round"/>
<path d="M37.6566 38.571C36.4571 34.8307 34.1008 31.5678 30.9274 29.2529C27.754 26.9379 23.9274 25.6905 19.9994 25.6905C16.0714 25.6905 12.2449 26.9379 9.07147 29.2529C5.89807 31.5678 3.54178 34.8307 2.34229 38.571H37.6566Z" stroke="#F3EA28" stroke-width="1.5" stroke-linecap="round" stroke-linejoin="round"/>
</svg>
