<svg width="40" height="41" viewBox="0 0 40 41" fill="none" xmlns="http://www.w3.org/2000/svg">
<path d="M19.9835 3.46777C10.7835 3.46777 3.3335 10.9344 3.3335 20.1344C3.3335 29.3344 10.7835 36.8011 19.9835 36.8011C29.2002 36.8011 36.6668 29.3344 36.6668 20.1344C36.6668 10.9344 29.2002 3.46777 19.9835 3.46777ZM20.0002 33.4678C12.6335 33.4678 6.66683 27.5011 6.66683 20.1344C6.66683 12.7678 12.6335 6.80111 20.0002 6.80111C27.3668 6.80111 33.3335 12.7678 33.3335 20.1344C33.3335 27.5011 27.3668 33.4678 20.0002 33.4678ZM20.8335 11.8011H18.3335V21.8011L27.0835 27.0511L28.3335 25.0011L20.8335 20.5511V11.8011Z" fill="#F3EA28"/>
</svg>
