<svg width="40" height="41" viewBox="0 0 40 41" fill="none" xmlns="http://www.w3.org/2000/svg">
<path d="M19.9833 3.46777C10.7833 3.46777 3.33325 10.9344 3.33325 20.1344C3.33325 29.3344 10.7833 36.8011 19.9833 36.8011C29.1999 36.8011 36.6666 29.3344 36.6666 20.1344C36.6666 10.9344 29.1999 3.46777 19.9833 3.46777ZM19.9999 33.4678C12.6333 33.4678 6.66659 27.5011 6.66659 20.1344C6.66659 12.7678 12.6333 6.80111 19.9999 6.80111C27.3666 6.80111 33.3333 12.7678 33.3333 20.1344C33.3333 27.5011 27.3666 33.4678 19.9999 33.4678ZM20.8333 11.8011H18.3333V21.8011L27.0833 27.0511L28.3333 25.0011L20.8333 20.5511V11.8011Z" fill="#FFF6F6"/>
</svg>
