<svg width="39" height="40" viewBox="0 0 39 40" fill="none" xmlns="http://www.w3.org/2000/svg">
<path d="M19.6 37.9429C18.9381 38.1983 18.2048 38.1983 17.5429 37.9429C12.3734 35.916 7.93466 32.3783 4.80537 27.7914C1.67611 23.2046 0.00153143 17.7812 0 12.2286V3.85714C0 3.09937 0.30102 2.37266 0.836837 1.83684C1.37266 1.30102 2.09937 1 2.85714 1H34.2857C35.0434 1 35.7703 1.30102 36.306 1.83684C36.8417 2.37266 37.1429 3.09937 37.1429 3.85714V12.2C37.1471 17.7575 35.4751 23.1871 32.3454 27.7796C29.216 32.3723 24.774 35.914 19.6 37.9429Z" stroke="white" stroke-width="2" stroke-linecap="round" stroke-linejoin="round"/>
<path d="M6.67578 30.2297C9.23638 26.3881 13.6084 23.8571 18.5715 23.8571C23.5346 23.8571 27.9065 26.3881 30.4671 30.2297" stroke="white" stroke-width="2" stroke-linecap="round" stroke-linejoin="round"/>
<path d="M18.5714 19.5714C22.1218 19.5714 25 16.6933 25 13.1429C25 9.59247 22.1218 6.71429 18.5714 6.71429C15.021 6.71429 12.1428 9.59247 12.1428 13.1429C12.1428 16.6933 15.021 19.5714 18.5714 19.5714Z" stroke="white" stroke-width="2" stroke-linecap="round" stroke-linejoin="round"/>
</svg>
